<!-- Generated by IcoMoon.io -->
<svg version="1.1" xmlns="http://www.w3.org/2000/svg" width="122" height="32" viewBox="0 0 122 32">
<path d="M119.826 15.202c0.3 0.3 0.469 0.707 0.469 1.131s-0.169 0.831-0.469 1.131l-13.576 13.576c-0.3 0.3-0.707 0.469-1.132 0.469s-0.831-0.169-1.131-0.469c-0.3-0.3-0.469-0.707-0.469-1.131s0.169-0.831 0.469-1.131l10.845-10.845-111.37 0.002c-0.21 0-0.419-0.041-0.613-0.122s-0.371-0.198-0.52-0.347c-0.149-0.149-0.267-0.325-0.347-0.52s-0.122-0.403-0.122-0.613c0-0.21 0.041-0.419 0.122-0.613s0.199-0.371 0.347-0.52c0.149-0.149 0.325-0.267 0.52-0.347s0.403-0.122 0.613-0.122l111.37 0.002-10.845-10.845c-0.3-0.3-0.469-0.707-0.469-1.131s0.169-0.831 0.469-1.131c0.3-0.3 0.707-0.469 1.131-0.469s0.831 0.169 1.132 0.469l13.576 13.576z"></path>
</svg>
