<svg xmlns="http://www.w3.org/2000/svg" style="display: none;">
  <symbol id="icon-logo" viewBox="0 0 67 32">
<path d="M7.059 0v29.176h-7.059v-29.176h7.059zM7.869 23.608h1.4v5.568h-1.4v-5.568zM7.824 21.304h1.502v1.446h-1.502v-1.446zM10.649 23.608h1.412v0.749c0.061-0.102 0.128-0.194 0.203-0.275 0.188-0.203 0.407-0.35 0.655-0.44 0.248-0.098 0.504-0.147 0.768-0.147 0.632 0 1.126 0.181 1.48 0.542 0.361 0.354 0.542 0.855 0.542 1.502v3.637h-1.412v-3.117c0-0.467-0.083-0.806-0.248-1.016-0.166-0.218-0.425-0.328-0.779-0.328-0.271 0-0.497 0.064-0.678 0.192-0.173 0.12-0.305 0.312-0.395 0.576s-0.136 0.606-0.136 1.028v2.665h-1.412v-5.568zM17.871 28.917c0.354 0.248 0.776 0.373 1.265 0.373 0.279 0 0.546-0.053 0.802-0.158 0.264-0.113 0.493-0.297 0.689-0.553 0.040-0.052 0.077-0.107 0.113-0.165v0.763h1.389v-7.872h-1.389v3.069c-0.028-0.046-0.058-0.090-0.090-0.132-0.188-0.248-0.414-0.433-0.678-0.553-0.256-0.128-0.535-0.192-0.836-0.192-0.429 0-0.824 0.117-1.186 0.35-0.361 0.226-0.651 0.553-0.87 0.983-0.211 0.429-0.316 0.949-0.316 1.559 0 0.55 0.094 1.047 0.282 1.491 0.196 0.437 0.471 0.783 0.824 1.039zM20.231 27.799c-0.196 0.136-0.433 0.203-0.712 0.203-0.271 0-0.508-0.064-0.712-0.192-0.203-0.136-0.361-0.324-0.474-0.565-0.105-0.241-0.158-0.527-0.158-0.858s0.053-0.614 0.158-0.847c0.113-0.241 0.271-0.425 0.474-0.553 0.203-0.136 0.44-0.203 0.712-0.203 0.279 0 0.516 0.068 0.712 0.203 0.203 0.128 0.358 0.312 0.463 0.553 0.113 0.241 0.169 0.523 0.169 0.847s-0.056 0.606-0.169 0.847c-0.105 0.241-0.26 0.429-0.463 0.565zM23.497 23.608h1.4v5.568h-1.4v-5.568zM23.452 21.304h1.502v1.446h-1.502v-1.446zM26.661 31.153c0.482 0.294 1.137 0.44 1.965 0.44 0.813 0 1.438-0.147 1.875-0.44 0.444-0.286 0.666-0.704 0.666-1.254 0-0.301-0.068-0.546-0.203-0.734-0.128-0.188-0.316-0.335-0.565-0.44-0.241-0.113-0.527-0.2-0.858-0.26-0.324-0.060-0.678-0.117-1.062-0.169-0.248-0.030-0.463-0.064-0.644-0.102s-0.32-0.090-0.418-0.158c-0.098-0.075-0.147-0.173-0.147-0.294 0-0.127 0.038-0.239 0.115-0.336 0.33 0.141 0.705 0.212 1.127 0.212 0.444 0 0.836-0.083 1.175-0.248s0.602-0.395 0.791-0.689c0.196-0.301 0.294-0.655 0.294-1.062 0-0.36-0.077-0.681-0.231-0.961l0.841-0.688-0.712-0.87-0.922 0.736c-0.049-0.029-0.099-0.056-0.151-0.081-0.346-0.173-0.723-0.26-1.129-0.26-0.414 0-0.798 0.087-1.152 0.26-0.346 0.173-0.625 0.418-0.836 0.734-0.203 0.309-0.305 0.67-0.305 1.084 0 0.399 0.098 0.753 0.294 1.062 0.069 0.107 0.148 0.206 0.237 0.298-0.114 0.092-0.215 0.192-0.304 0.301-0.203 0.241-0.305 0.508-0.305 0.802 0 0.331 0.109 0.599 0.328 0.802 0.107 0.096 0.228 0.18 0.362 0.253l-0.791 0.493c-0.015 0.060-0.026 0.12-0.034 0.181-0.008 0.068-0.011 0.124-0.011 0.169 0 0.52 0.237 0.926 0.712 1.22zM27.192 29.877l0.409-0.5c0.218 0.053 0.439 0.092 0.664 0.116 0.271 0.038 0.501 0.072 0.689 0.102 0.196 0.030 0.354 0.064 0.474 0.102s0.207 0.087 0.26 0.147c0.053 0.060 0.079 0.139 0.079 0.237 0 0.181-0.098 0.316-0.294 0.407-0.196 0.098-0.478 0.147-0.847 0.147-0.437 0-0.787-0.056-1.050-0.169s-0.395-0.275-0.395-0.486v-0.045c0-0.015 0.004-0.034 0.011-0.056zM29.146 26.24c-0.143 0.181-0.365 0.271-0.666 0.271s-0.527-0.090-0.678-0.271c-0.151-0.188-0.226-0.414-0.226-0.678s0.079-0.482 0.237-0.655c0.166-0.173 0.388-0.26 0.666-0.26s0.497 0.087 0.655 0.26c0.158 0.166 0.237 0.384 0.237 0.655 0 0.264-0.075 0.489-0.226 0.678zM32.178 23.608h1.412v0.742c0.12-0.205 0.26-0.366 0.418-0.482 0.181-0.136 0.365-0.23 0.553-0.282 0.196-0.060 0.388-0.090 0.576-0.090 0.294 0 0.572 0.056 0.836 0.169 0.264 0.105 0.493 0.29 0.689 0.553 0.026 0.035 0.051 0.072 0.075 0.11 0.214-0.295 0.456-0.505 0.727-0.63 0.286-0.136 0.587-0.203 0.904-0.203 0.474 0 0.858 0.105 1.152 0.316s0.508 0.482 0.644 0.813c0.143 0.324 0.215 0.67 0.215 1.039v3.512h-1.4v-3.174c0-0.279-0.038-0.512-0.113-0.7-0.068-0.196-0.169-0.343-0.305-0.44s-0.312-0.147-0.531-0.147c-0.226 0-0.418 0.060-0.576 0.181s-0.279 0.301-0.361 0.542c-0.075 0.241-0.113 0.55-0.113 0.926v2.812h-1.4v-3.196c0-0.422-0.079-0.738-0.237-0.949-0.151-0.211-0.373-0.316-0.666-0.316-0.233 0-0.433 0.060-0.599 0.181-0.158 0.12-0.279 0.301-0.361 0.542s-0.124 0.55-0.124 0.926v2.812h-1.412v-5.568zM45.169 28.462c-0.030 0.044-0.062 0.087-0.095 0.127-0.196 0.241-0.422 0.418-0.678 0.531s-0.527 0.169-0.813 0.169c-0.407 0-0.772-0.075-1.096-0.226-0.316-0.151-0.568-0.365-0.757-0.644-0.181-0.279-0.271-0.599-0.271-0.96 0-0.324 0.064-0.599 0.192-0.824 0.136-0.233 0.312-0.41 0.531-0.531 0.188-0.113 0.395-0.192 0.621-0.237 0.233-0.045 0.482-0.068 0.745-0.068h1.604v-0.136c0-0.331-0.105-0.576-0.316-0.734-0.203-0.166-0.482-0.248-0.836-0.248-0.294 0-0.595 0.060-0.904 0.181-0.301 0.113-0.568 0.275-0.802 0.486l-0.712-0.96c0.392-0.316 0.791-0.542 1.197-0.678 0.414-0.143 0.858-0.215 1.333-0.215 0.768 0 1.367 0.192 1.796 0.576s0.644 0.915 0.644 1.592v3.512h-1.288l-0.097-0.715zM45.152 26.884v-0.045h-1.4c-0.12 0-0.241 0.011-0.361 0.034-0.113 0.015-0.211 0.056-0.294 0.124-0.075 0.053-0.132 0.12-0.169 0.203-0.038 0.075-0.056 0.162-0.056 0.26 0 0.211 0.083 0.38 0.248 0.508s0.388 0.192 0.666 0.192c0.248 0 0.474-0.053 0.678-0.158 0.211-0.113 0.376-0.264 0.497-0.452 0.128-0.196 0.192-0.418 0.192-0.666zM49.149 29.12c-0.256-0.113-0.463-0.297-0.621-0.553-0.151-0.256-0.226-0.599-0.226-1.028v-2.835h-1.016v-1.096h1.016v-1.299l1.423-0.757v2.056h1.208v1.096h-1.208v2.451c0 0.324 0.041 0.568 0.124 0.734 0.090 0.166 0.264 0.248 0.52 0.248 0.075 0 0.158-0.008 0.248-0.023 0.098-0.015 0.203-0.038 0.316-0.068v1.073c-0.158 0.060-0.316 0.102-0.474 0.124-0.158 0.030-0.316 0.045-0.474 0.045-0.301 0-0.58-0.056-0.836-0.169zM55.481 28.462c-0.030 0.044-0.062 0.087-0.095 0.127-0.196 0.241-0.422 0.418-0.678 0.531s-0.527 0.169-0.813 0.169c-0.407 0-0.772-0.075-1.096-0.226-0.316-0.151-0.568-0.365-0.757-0.644-0.181-0.279-0.271-0.599-0.271-0.96 0-0.324 0.064-0.599 0.192-0.824 0.136-0.233 0.312-0.41 0.531-0.531 0.188-0.113 0.395-0.192 0.621-0.237 0.233-0.045 0.482-0.068 0.745-0.068h1.604v-0.136c0-0.331-0.105-0.576-0.316-0.734-0.203-0.166-0.482-0.248-0.836-0.248-0.294 0-0.595 0.060-0.904 0.181-0.301 0.113-0.568 0.275-0.802 0.486l-0.712-0.96c0.392-0.316 0.791-0.542 1.197-0.678 0.414-0.143 0.858-0.215 1.333-0.215 0.768 0 1.367 0.192 1.796 0.576s0.644 0.915 0.644 1.592v3.512h-1.288l-0.097-0.715zM55.465 26.884v-0.045h-1.4c-0.12 0-0.241 0.011-0.361 0.034-0.113 0.015-0.211 0.056-0.294 0.124-0.075 0.053-0.132 0.12-0.169 0.203-0.038 0.075-0.056 0.162-0.056 0.26 0 0.211 0.083 0.38 0.248 0.508s0.388 0.192 0.666 0.192c0.248 0 0.474-0.053 0.678-0.158 0.211-0.113 0.376-0.264 0.497-0.452 0.128-0.196 0.192-0.418 0.192-0.666zM59.462 29.12c-0.256-0.113-0.463-0.297-0.621-0.553-0.151-0.256-0.226-0.599-0.226-1.028v-2.835h-1.016v-1.096h1.016v-1.299l1.423-0.757v2.056h1.208v1.096h-1.208v2.451c0 0.324 0.041 0.568 0.124 0.734 0.090 0.166 0.264 0.248 0.52 0.248 0.075 0 0.158-0.008 0.248-0.023 0.098-0.015 0.203-0.038 0.316-0.068v1.073c-0.158 0.060-0.316 0.102-0.474 0.124-0.158 0.030-0.316 0.045-0.474 0.045-0.301 0-0.58-0.056-0.836-0.169zM63.453 29.052c-0.346-0.158-0.632-0.369-0.858-0.632-0.218-0.271-0.38-0.576-0.486-0.915-0.105-0.346-0.158-0.708-0.158-1.084 0-0.361 0.053-0.715 0.158-1.062s0.264-0.659 0.474-0.937c0.211-0.279 0.482-0.501 0.813-0.666 0.339-0.173 0.742-0.26 1.208-0.26 0.437 0 0.817 0.075 1.141 0.226 0.324 0.143 0.591 0.346 0.802 0.61 0.211 0.256 0.369 0.557 0.474 0.904 0.113 0.346 0.169 0.715 0.169 1.107 0 0.053-0.004 0.128-0.011 0.226 0 0.090-0.008 0.188-0.023 0.294h-3.806c0.038 0.399 0.184 0.7 0.44 0.904 0.264 0.203 0.591 0.305 0.983 0.305 0.286 0 0.565-0.049 0.836-0.147 0.271-0.105 0.512-0.252 0.723-0.44l0.7 0.949c-0.264 0.203-0.512 0.369-0.745 0.497s-0.478 0.218-0.734 0.271c-0.248 0.060-0.535 0.090-0.858 0.090-0.482 0-0.896-0.079-1.242-0.237zM65.859 25.822c0-0.004 0-0.008 0-0.011 0-0.158-0.030-0.305-0.090-0.44-0.060-0.143-0.143-0.267-0.248-0.373s-0.233-0.184-0.384-0.237c-0.143-0.060-0.309-0.090-0.497-0.090-0.279 0-0.512 0.056-0.7 0.169s-0.331 0.26-0.429 0.44c-0.090 0.173-0.147 0.354-0.169 0.542h2.519z"></path>
</symbol>
<symbol id="logo" viewBox="0 0 155 32">
<path d="M16.451 0v25.6h-16.451v-25.6h16.451zM19.148 12.98h3.174v12.621h-3.174v-12.621zM19.046 7.758h3.405v3.277h-3.405v-3.277zM25.449 12.98h3.2v1.698c0.137-0.232 0.291-0.44 0.461-0.623 0.427-0.461 0.922-0.794 1.485-0.998 0.563-0.222 1.143-0.333 1.741-0.333 1.434 0 2.551 0.41 3.354 1.229 0.819 0.802 1.229 1.937 1.229 3.405v8.243h-3.2v-7.066c0-1.058-0.188-1.826-0.563-2.304-0.375-0.495-0.964-0.742-1.766-0.742-0.614 0-1.126 0.145-1.536 0.435-0.393 0.273-0.691 0.708-0.896 1.306s-0.307 1.374-0.307 2.33v6.042h-3.2v-12.621zM41.819 25.012c0.802 0.563 1.758 0.845 2.867 0.845 0.631 0 1.237-0.119 1.818-0.358 0.597-0.256 1.118-0.674 1.562-1.254 0.090-0.117 0.176-0.241 0.256-0.374v1.73h3.149v-17.843h-3.149v6.956c-0.064-0.105-0.132-0.205-0.205-0.3-0.427-0.563-0.939-0.981-1.536-1.254-0.58-0.29-1.212-0.435-1.894-0.435-0.973 0-1.869 0.265-2.688 0.794-0.819 0.512-1.476 1.254-1.971 2.227-0.478 0.973-0.717 2.15-0.717 3.533 0 1.246 0.213 2.372 0.64 3.379 0.444 0.99 1.067 1.775 1.869 2.355zM47.169 22.478c-0.444 0.307-0.981 0.461-1.613 0.461-0.614 0-1.152-0.145-1.613-0.435-0.461-0.307-0.819-0.734-1.075-1.28-0.239-0.546-0.358-1.195-0.358-1.946s0.119-1.391 0.358-1.92c0.256-0.546 0.614-0.964 1.075-1.254 0.461-0.307 0.998-0.461 1.613-0.461 0.631 0 1.169 0.154 1.613 0.461 0.461 0.29 0.811 0.708 1.050 1.254 0.256 0.546 0.384 1.186 0.384 1.92s-0.128 1.374-0.384 1.92c-0.239 0.546-0.589 0.973-1.050 1.28zM54.573 12.98h3.174v12.621h-3.174v-12.621zM54.471 7.758h3.405v3.277h-3.405v-3.277zM61.744 30.081c1.092 0.666 2.577 0.998 4.454 0.998 1.843 0 3.26-0.333 4.25-0.998 1.007-0.649 1.51-1.596 1.51-2.842 0-0.683-0.154-1.237-0.461-1.664-0.29-0.427-0.717-0.759-1.28-0.998-0.546-0.256-1.195-0.452-1.946-0.589-0.734-0.137-1.536-0.265-2.406-0.384-0.563-0.068-1.050-0.145-1.459-0.23s-0.725-0.205-0.947-0.358c-0.222-0.171-0.333-0.393-0.333-0.666 0-0.288 0.087-0.542 0.262-0.762 0.747 0.32 1.598 0.48 2.554 0.48 1.007 0 1.894-0.188 2.662-0.563s1.365-0.896 1.792-1.562c0.444-0.683 0.666-1.485 0.666-2.406 0-0.816-0.174-1.543-0.523-2.179l1.905-1.559-1.613-1.971-2.090 1.668c-0.111-0.065-0.225-0.126-0.342-0.183-0.785-0.393-1.638-0.589-2.56-0.589-0.939 0-1.809 0.196-2.611 0.589-0.785 0.393-1.417 0.947-1.894 1.664-0.461 0.7-0.691 1.519-0.691 2.458 0 0.905 0.222 1.707 0.666 2.406 0.157 0.242 0.336 0.467 0.537 0.675-0.258 0.208-0.488 0.435-0.69 0.682-0.461 0.546-0.691 1.152-0.691 1.818 0 0.751 0.247 1.357 0.742 1.818 0.243 0.218 0.516 0.408 0.82 0.572l-1.793 1.117c-0.034 0.137-0.060 0.273-0.077 0.41-0.017 0.154-0.026 0.282-0.026 0.384 0 1.178 0.538 2.099 1.613 2.765zM62.947 27.188l0.927-1.133c0.495 0.12 0.996 0.207 1.505 0.263 0.614 0.085 1.135 0.162 1.562 0.23 0.444 0.068 0.802 0.145 1.075 0.23s0.469 0.196 0.589 0.333c0.119 0.137 0.179 0.316 0.179 0.538 0 0.41-0.222 0.717-0.666 0.922-0.444 0.222-1.084 0.333-1.92 0.333-0.99 0-1.783-0.128-2.381-0.384s-0.896-0.623-0.896-1.101v-0.102c0-0.034 0.009-0.077 0.026-0.128zM67.376 18.945c-0.324 0.41-0.828 0.614-1.51 0.614s-1.195-0.205-1.536-0.614c-0.341-0.427-0.512-0.939-0.512-1.536s0.179-1.092 0.538-1.485c0.375-0.393 0.879-0.589 1.51-0.589s1.126 0.196 1.485 0.589c0.358 0.375 0.538 0.87 0.538 1.485 0 0.597-0.171 1.109-0.512 1.536zM74.249 12.98h3.2v1.682c0.273-0.464 0.589-0.829 0.947-1.094 0.41-0.307 0.828-0.521 1.254-0.64 0.444-0.137 0.879-0.205 1.306-0.205 0.666 0 1.297 0.128 1.894 0.384 0.597 0.239 1.118 0.657 1.562 1.254 0.059 0.079 0.115 0.162 0.169 0.249 0.485-0.669 1.034-1.145 1.648-1.427 0.649-0.307 1.331-0.461 2.048-0.461 1.075 0 1.946 0.239 2.611 0.717s1.152 1.092 1.459 1.843c0.324 0.734 0.486 1.519 0.486 2.355v7.962h-3.174v-7.194c0-0.631-0.085-1.161-0.256-1.587-0.154-0.444-0.384-0.777-0.691-0.998s-0.708-0.333-1.203-0.333c-0.512 0-0.947 0.137-1.306 0.41s-0.631 0.683-0.819 1.229c-0.171 0.546-0.256 1.246-0.256 2.099v6.374h-3.174v-7.245c0-0.956-0.179-1.673-0.538-2.15-0.341-0.478-0.845-0.717-1.51-0.717-0.529 0-0.981 0.137-1.357 0.41-0.358 0.273-0.631 0.683-0.819 1.229s-0.282 1.246-0.282 2.099v6.374h-3.2v-12.621zM103.695 23.981c-0.069 0.101-0.141 0.197-0.216 0.289-0.444 0.546-0.956 0.947-1.536 1.203s-1.195 0.384-1.843 0.384c-0.922 0-1.749-0.171-2.483-0.512-0.717-0.341-1.289-0.828-1.715-1.459-0.41-0.631-0.614-1.357-0.614-2.176 0-0.734 0.145-1.357 0.435-1.869 0.307-0.529 0.708-0.93 1.203-1.203 0.427-0.256 0.896-0.435 1.408-0.538 0.529-0.102 1.092-0.154 1.69-0.154h3.635v-0.307c0-0.751-0.239-1.306-0.717-1.664-0.461-0.375-1.092-0.563-1.894-0.563-0.666 0-1.348 0.137-2.048 0.41-0.683 0.256-1.289 0.623-1.818 1.101l-1.613-2.176c0.887-0.717 1.792-1.229 2.714-1.536 0.939-0.324 1.946-0.486 3.021-0.486 1.741 0 3.098 0.435 4.070 1.306s1.459 2.074 1.459 3.61v7.962h-2.919l-0.219-1.62zM103.657 20.404v-0.102h-3.174c-0.273 0-0.546 0.026-0.819 0.077-0.256 0.034-0.478 0.128-0.666 0.282-0.171 0.119-0.299 0.273-0.384 0.461-0.085 0.171-0.128 0.367-0.128 0.589 0 0.478 0.188 0.862 0.563 1.152s0.879 0.435 1.51 0.435c0.563 0 1.075-0.119 1.536-0.358 0.478-0.256 0.853-0.597 1.126-1.024 0.29-0.444 0.435-0.947 0.435-1.51zM112.717 25.473c-0.58-0.256-1.050-0.674-1.408-1.254-0.341-0.58-0.512-1.357-0.512-2.33v-6.426h-2.304v-2.483h2.304v-2.944l3.226-1.715v4.659h2.739v2.483h-2.739v5.555c0 0.734 0.094 1.289 0.282 1.664 0.205 0.375 0.597 0.563 1.178 0.563 0.171 0 0.358-0.017 0.563-0.051 0.222-0.034 0.461-0.085 0.717-0.154v2.432c-0.358 0.137-0.717 0.23-1.075 0.282-0.358 0.068-0.717 0.102-1.075 0.102-0.683 0-1.314-0.128-1.894-0.384zM127.070 23.981c-0.069 0.101-0.142 0.197-0.217 0.289-0.444 0.546-0.956 0.947-1.536 1.203s-1.195 0.384-1.843 0.384c-0.922 0-1.749-0.171-2.483-0.512-0.717-0.341-1.289-0.828-1.715-1.459-0.41-0.631-0.614-1.357-0.614-2.176 0-0.734 0.145-1.357 0.435-1.869 0.307-0.529 0.708-0.93 1.203-1.203 0.427-0.256 0.896-0.435 1.408-0.538 0.529-0.102 1.092-0.154 1.69-0.154h3.635v-0.307c0-0.751-0.239-1.306-0.717-1.664-0.461-0.375-1.092-0.563-1.894-0.563-0.666 0-1.348 0.137-2.048 0.41-0.683 0.256-1.289 0.623-1.818 1.101l-1.613-2.176c0.887-0.717 1.792-1.229 2.714-1.536 0.939-0.324 1.946-0.486 3.021-0.486 1.741 0 3.098 0.435 4.070 1.306s1.459 2.074 1.459 3.61v7.962h-2.918l-0.219-1.62zM127.033 20.404v-0.102h-3.174c-0.273 0-0.546 0.026-0.819 0.077-0.256 0.034-0.478 0.128-0.666 0.282-0.171 0.119-0.299 0.273-0.384 0.461-0.085 0.171-0.128 0.367-0.128 0.589 0 0.478 0.188 0.862 0.563 1.152s0.879 0.435 1.51 0.435c0.563 0 1.075-0.119 1.536-0.358 0.478-0.256 0.853-0.597 1.126-1.024 0.29-0.444 0.435-0.947 0.435-1.51zM136.092 25.473c-0.58-0.256-1.050-0.674-1.408-1.254-0.341-0.58-0.512-1.357-0.512-2.33v-6.426h-2.304v-2.483h2.304v-2.944l3.226-1.715v4.659h2.739v2.483h-2.739v5.555c0 0.734 0.094 1.289 0.282 1.664 0.205 0.375 0.597 0.563 1.178 0.563 0.171 0 0.358-0.017 0.563-0.051 0.222-0.034 0.461-0.085 0.717-0.154v2.432c-0.358 0.137-0.717 0.23-1.075 0.282-0.358 0.068-0.717 0.102-1.075 0.102-0.683 0-1.314-0.128-1.894-0.384zM145.14 25.319c-0.785-0.358-1.434-0.836-1.946-1.434-0.495-0.614-0.862-1.306-1.101-2.074-0.239-0.785-0.358-1.604-0.358-2.458 0-0.819 0.119-1.621 0.358-2.406s0.597-1.493 1.075-2.125c0.478-0.631 1.092-1.135 1.843-1.51 0.768-0.393 1.681-0.589 2.739-0.589 0.99 0 1.852 0.171 2.586 0.512 0.734 0.324 1.34 0.785 1.818 1.382 0.478 0.58 0.836 1.263 1.075 2.048 0.256 0.785 0.384 1.621 0.384 2.509 0 0.119-0.009 0.29-0.026 0.512 0 0.205-0.017 0.427-0.051 0.666h-8.627c0.085 0.905 0.418 1.587 0.998 2.048 0.597 0.461 1.34 0.691 2.227 0.691 0.649 0 1.28-0.111 1.894-0.333 0.614-0.239 1.161-0.572 1.638-0.998l1.587 2.15c-0.597 0.461-1.161 0.836-1.69 1.126s-1.084 0.495-1.664 0.614c-0.563 0.137-1.212 0.205-1.946 0.205-1.092 0-2.031-0.179-2.816-0.538zM150.592 17.998c0.001-0.009 0.001-0.017 0.001-0.026 0-0.358-0.068-0.691-0.205-0.998-0.137-0.324-0.324-0.606-0.563-0.845s-0.529-0.418-0.87-0.538c-0.324-0.137-0.7-0.205-1.126-0.205-0.631 0-1.161 0.128-1.587 0.384s-0.751 0.589-0.973 0.998c-0.205 0.393-0.333 0.802-0.384 1.229h5.708z"></path>
</symbol>
<symbol id="instagram" viewBox="0 0 32 32">
<path d="M0 16c0-8.837 7.163-16 16-16s16 7.163 16 16c0 8.837-7.163 16-16 16s-16-7.163-16-16zM16.001 7.467c-2.317 0-2.608 0.010-3.519 0.052-0.909 0.042-1.528 0.185-2.071 0.396-0.561 0.218-1.037 0.51-1.512 0.984s-0.766 0.95-0.985 1.511c-0.212 0.543-0.356 1.163-0.396 2.071-0.041 0.91-0.051 1.201-0.051 3.519s0.010 2.607 0.052 3.518c0.042 0.909 0.186 1.529 0.396 2.071 0.218 0.561 0.51 1.037 0.984 1.512s0.95 0.767 1.511 0.985c0.543 0.211 1.163 0.355 2.072 0.396 0.91 0.041 1.201 0.052 3.518 0.052s2.608-0.010 3.518-0.052c0.908-0.042 1.529-0.185 2.072-0.396 0.561-0.218 1.036-0.51 1.511-0.985s0.766-0.95 0.985-1.512c0.21-0.543 0.354-1.163 0.396-2.071 0.041-0.91 0.052-1.2 0.052-3.518s-0.011-2.608-0.052-3.519c-0.043-0.909-0.187-1.529-0.396-2.071-0.219-0.561-0.51-1.037-0.985-1.512s-0.949-0.766-1.511-0.984c-0.544-0.211-1.164-0.355-2.073-0.396-0.91-0.041-1.2-0.052-3.518-0.052h0.003z"></path>
<path d="M15.235 9.005c0.227-0 0.481 0 0.766 0 2.278 0 2.548 0.008 3.448 0.049 0.832 0.038 1.284 0.177 1.584 0.294 0.398 0.155 0.682 0.34 0.981 0.638s0.484 0.583 0.639 0.981c0.117 0.3 0.256 0.752 0.294 1.584 0.041 0.899 0.050 1.17 0.050 3.447s-0.009 2.548-0.050 3.447c-0.038 0.832-0.177 1.284-0.294 1.584-0.155 0.398-0.34 0.682-0.639 0.98s-0.582 0.483-0.981 0.638c-0.3 0.117-0.752 0.256-1.584 0.294-0.9 0.041-1.17 0.050-3.448 0.050s-2.549-0.009-3.448-0.050c-0.832-0.038-1.284-0.177-1.585-0.294-0.398-0.155-0.683-0.34-0.981-0.638s-0.484-0.582-0.639-0.981c-0.117-0.3-0.256-0.752-0.294-1.584-0.041-0.9-0.049-1.17-0.049-3.449s0.008-2.548 0.049-3.447c0.038-0.832 0.177-1.284 0.294-1.584 0.155-0.398 0.34-0.683 0.639-0.981s0.583-0.484 0.981-0.639c0.301-0.117 0.753-0.256 1.585-0.294 0.787-0.036 1.092-0.046 2.683-0.048v0.002zM20.555 10.422c-0.565 0-1.024 0.458-1.024 1.024s0.459 1.024 1.024 1.024c0.565 0 1.024-0.459 1.024-1.024s-0.459-1.024-1.024-1.024zM16 11.618c-2.42 0-4.382 1.962-4.382 4.382s1.962 4.381 4.382 4.381c2.42 0 4.381-1.961 4.381-4.381s-1.961-4.382-4.381-4.382z"></path>
<path d="M16.001 13.155c1.571 0 2.845 1.273 2.845 2.844s-1.274 2.845-2.845 2.845c-1.571 0-2.845-1.274-2.845-2.845s1.273-2.844 2.845-2.844z"></path>
</symbol>
<symbol id="telegram" viewBox="0 0 32 32">
<path d="M16 0c-8.838 0-16 7.162-16 16s7.162 16 16 16 16-7.163 16-16-7.163-16-16-16zM23.863 10.969l-2.625 12.369c-0.181 0.881-0.712 1.087-1.45 0.681l-4-2.956-1.919 1.869c-0.225 0.219-0.4 0.4-0.8 0.4-0.519 0-0.431-0.194-0.606-0.688l-1.363-4.475-3.956-1.231c-0.856-0.262-0.862-0.85 0.194-1.269l15.412-5.95c0.7-0.319 1.381 0.169 1.113 1.25z"></path>
</symbol>
<symbol id="logo-hover" viewBox="0 0 156 32">
<path d="M3.2 0.64c-0.825 0-1.493 0.669-1.493 1.493v21.333c0 0.825 0.669 1.493 1.493 1.493h12.192c0.825 0 1.493-0.669 1.493-1.493v-21.333c0-0.825-0.669-1.493-1.493-1.493h-12.192zM1.067 2.133c0-1.178 0.955-2.133 2.133-2.133h12.192c1.178 0 2.133 0.955 2.133 2.133v21.333c0 1.178-0.955 2.133-2.133 2.133h-12.192c-1.178 0-2.133-0.955-2.133-2.133h-1.067v-2.133h1.067v-19.2zM13.333 8c0 2.356-1.91 4.267-4.267 4.267s-4.267-1.91-4.267-4.267 1.91-4.267 4.267-4.267c2.356 0 4.267 1.91 4.267 4.267zM9.067 12.8c2.651 0 4.8-2.149 4.8-4.8s-2.149-4.8-4.8-4.8c-2.651 0-4.8 2.149-4.8 4.8s2.149 4.8 4.8 4.8zM9.067 10.133c1.178 0 2.133-0.955 2.133-2.133s-0.955-2.133-2.133-2.133c-1.178 0-2.133 0.955-2.133 2.133s0.955 2.133 2.133 2.133zM11.733 8c0 1.473-1.194 2.667-2.667 2.667s-2.667-1.194-2.667-2.667c0-1.473 1.194-2.667 2.667-2.667s2.667 1.194 2.667 2.667zM3.84 1.493v1.28h-0.213v-1.28h0.213zM3.627 1.067h-0.427v2.133h1.067v-2.133h-0.64zM20.215 12.98h3.174v12.621h-3.174v-12.621zM20.113 7.758h3.405v3.277h-3.405v-3.277zM26.516 12.98h3.2v1.698c0.137-0.232 0.291-0.44 0.461-0.623 0.427-0.461 0.922-0.794 1.485-0.998 0.563-0.222 1.143-0.333 1.741-0.333 1.434 0 2.551 0.41 3.354 1.229 0.819 0.802 1.229 1.937 1.229 3.405v8.243h-3.2v-7.066c0-1.058-0.188-1.826-0.563-2.304-0.375-0.495-0.964-0.742-1.766-0.742-0.614 0-1.126 0.145-1.536 0.435-0.393 0.273-0.691 0.708-0.896 1.306s-0.307 1.374-0.307 2.33v6.041h-3.2v-12.621zM42.886 25.012c0.802 0.563 1.758 0.845 2.867 0.845 0.631 0 1.237-0.119 1.818-0.358 0.597-0.256 1.118-0.674 1.562-1.254 0.090-0.117 0.176-0.241 0.256-0.374v1.73h3.149v-17.843h-3.149v6.956c-0.064-0.105-0.132-0.205-0.205-0.3-0.427-0.563-0.939-0.981-1.536-1.254-0.58-0.29-1.212-0.435-1.894-0.435-0.973 0-1.869 0.265-2.688 0.794-0.819 0.512-1.476 1.254-1.971 2.227-0.478 0.973-0.717 2.15-0.717 3.533 0 1.246 0.213 2.372 0.64 3.379 0.444 0.99 1.067 1.775 1.869 2.355zM48.236 22.478c-0.444 0.307-0.981 0.461-1.613 0.461-0.614 0-1.152-0.145-1.613-0.435-0.461-0.307-0.819-0.734-1.075-1.28-0.239-0.546-0.358-1.195-0.358-1.945s0.119-1.391 0.358-1.92c0.256-0.546 0.614-0.964 1.075-1.254 0.461-0.307 0.998-0.461 1.613-0.461 0.631 0 1.169 0.154 1.613 0.461 0.461 0.29 0.811 0.708 1.050 1.254 0.256 0.546 0.384 1.186 0.384 1.92s-0.128 1.374-0.384 1.92c-0.239 0.546-0.589 0.973-1.050 1.28zM55.64 12.98h3.174v12.621h-3.174v-12.621zM55.538 7.758h3.405v3.277h-3.405v-3.277zM62.811 30.081c1.092 0.666 2.577 0.998 4.454 0.998 1.843 0 3.26-0.333 4.25-0.998 1.007-0.649 1.51-1.596 1.51-2.842 0-0.683-0.154-1.237-0.461-1.664-0.29-0.427-0.717-0.759-1.28-0.998-0.546-0.256-1.195-0.452-1.946-0.589-0.734-0.137-1.536-0.265-2.406-0.384-0.563-0.068-1.050-0.145-1.459-0.23s-0.725-0.205-0.947-0.358c-0.222-0.171-0.333-0.393-0.333-0.666 0-0.288 0.087-0.542 0.262-0.762 0.747 0.32 1.598 0.48 2.554 0.48 1.007 0 1.894-0.188 2.662-0.563s1.365-0.896 1.792-1.562c0.444-0.683 0.666-1.485 0.666-2.406 0-0.816-0.174-1.543-0.523-2.179l1.905-1.559-1.613-1.971-2.090 1.668c-0.111-0.065-0.225-0.126-0.342-0.184-0.785-0.393-1.638-0.589-2.56-0.589-0.939 0-1.809 0.196-2.611 0.589-0.785 0.393-1.417 0.947-1.894 1.664-0.461 0.7-0.691 1.519-0.691 2.458 0 0.905 0.222 1.707 0.666 2.407 0.157 0.242 0.336 0.467 0.537 0.675-0.258 0.208-0.488 0.435-0.69 0.682-0.461 0.546-0.691 1.152-0.691 1.818 0 0.751 0.247 1.357 0.742 1.818 0.243 0.217 0.516 0.408 0.82 0.572l-1.793 1.117c-0.034 0.137-0.060 0.273-0.077 0.41-0.017 0.154-0.026 0.282-0.026 0.384 0 1.178 0.538 2.099 1.613 2.765zM64.014 27.188l0.927-1.133c0.494 0.12 0.996 0.207 1.505 0.263 0.614 0.085 1.135 0.162 1.562 0.23 0.444 0.068 0.802 0.145 1.075 0.23s0.469 0.196 0.589 0.333c0.119 0.137 0.179 0.316 0.179 0.538 0 0.41-0.222 0.717-0.666 0.922-0.444 0.222-1.084 0.333-1.92 0.333-0.99 0-1.783-0.128-2.381-0.384s-0.896-0.623-0.896-1.101v-0.102c0-0.034 0.009-0.077 0.026-0.128zM68.443 18.945c-0.324 0.41-0.828 0.614-1.51 0.614s-1.195-0.205-1.536-0.614c-0.341-0.427-0.512-0.939-0.512-1.536s0.179-1.092 0.538-1.485c0.375-0.393 0.879-0.589 1.51-0.589s1.126 0.196 1.485 0.589c0.358 0.375 0.538 0.87 0.538 1.485 0 0.597-0.171 1.109-0.512 1.536zM75.316 12.98h3.2v1.682c0.273-0.464 0.589-0.829 0.947-1.094 0.41-0.307 0.828-0.521 1.254-0.64 0.444-0.137 0.879-0.205 1.306-0.205 0.666 0 1.297 0.128 1.894 0.384 0.597 0.239 1.118 0.657 1.562 1.254 0.059 0.079 0.115 0.162 0.169 0.249 0.485-0.669 1.034-1.145 1.648-1.427 0.649-0.307 1.331-0.461 2.048-0.461 1.075 0 1.946 0.239 2.611 0.717s1.152 1.092 1.459 1.843c0.324 0.734 0.486 1.519 0.486 2.355v7.962h-3.174v-7.194c0-0.632-0.085-1.161-0.256-1.587-0.154-0.444-0.384-0.777-0.691-0.998s-0.708-0.333-1.203-0.333c-0.512 0-0.947 0.137-1.306 0.41s-0.631 0.683-0.819 1.229c-0.171 0.546-0.256 1.246-0.256 2.099v6.374h-3.174v-7.245c0-0.956-0.179-1.673-0.538-2.151-0.341-0.478-0.845-0.717-1.51-0.717-0.529 0-0.981 0.137-1.357 0.41-0.358 0.273-0.631 0.683-0.819 1.229s-0.282 1.246-0.282 2.099v6.374h-3.2v-12.621zM104.761 23.981c-0.069 0.101-0.141 0.197-0.216 0.289-0.444 0.546-0.956 0.947-1.536 1.203s-1.195 0.384-1.843 0.384c-0.922 0-1.749-0.171-2.483-0.512-0.717-0.341-1.289-0.828-1.715-1.459-0.41-0.632-0.614-1.357-0.614-2.176 0-0.734 0.145-1.357 0.435-1.869 0.307-0.529 0.708-0.93 1.203-1.203 0.427-0.256 0.896-0.435 1.408-0.538 0.529-0.102 1.092-0.154 1.69-0.154h3.635v-0.307c0-0.751-0.239-1.306-0.717-1.664-0.461-0.375-1.092-0.563-1.894-0.563-0.666 0-1.348 0.137-2.048 0.41-0.683 0.256-1.289 0.623-1.818 1.101l-1.613-2.176c0.887-0.717 1.792-1.229 2.714-1.536 0.939-0.324 1.946-0.486 3.021-0.486 1.741 0 3.098 0.435 4.070 1.306s1.459 2.074 1.459 3.61v7.962h-2.919l-0.219-1.62zM104.724 20.404v-0.102h-3.174c-0.273 0-0.546 0.026-0.819 0.077-0.256 0.034-0.478 0.128-0.666 0.282-0.171 0.119-0.299 0.273-0.384 0.461-0.085 0.171-0.128 0.367-0.128 0.589 0 0.478 0.188 0.862 0.563 1.152s0.879 0.435 1.51 0.435c0.563 0 1.075-0.119 1.536-0.358 0.478-0.256 0.853-0.597 1.126-1.024 0.29-0.444 0.435-0.947 0.435-1.51zM113.783 25.473c-0.58-0.256-1.050-0.674-1.408-1.254-0.341-0.58-0.512-1.357-0.512-2.33v-6.426h-2.304v-2.483h2.304v-2.944l3.226-1.715v4.659h2.739v2.483h-2.739v5.555c0 0.734 0.094 1.289 0.282 1.664 0.205 0.375 0.597 0.563 1.178 0.563 0.171 0 0.358-0.017 0.563-0.051 0.222-0.034 0.461-0.085 0.717-0.154v2.432c-0.358 0.137-0.717 0.23-1.075 0.282-0.358 0.068-0.717 0.102-1.075 0.102-0.683 0-1.314-0.128-1.894-0.384zM128.137 23.981c-0.069 0.101-0.142 0.197-0.217 0.289-0.444 0.546-0.956 0.947-1.536 1.203s-1.195 0.384-1.843 0.384c-0.922 0-1.749-0.171-2.483-0.512-0.717-0.341-1.289-0.828-1.715-1.459-0.41-0.632-0.614-1.357-0.614-2.176 0-0.734 0.145-1.357 0.435-1.869 0.307-0.529 0.708-0.93 1.203-1.203 0.427-0.256 0.896-0.435 1.408-0.538 0.529-0.102 1.092-0.154 1.69-0.154h3.635v-0.307c0-0.751-0.239-1.306-0.717-1.664-0.461-0.375-1.092-0.563-1.894-0.563-0.666 0-1.348 0.137-2.048 0.41-0.683 0.256-1.289 0.623-1.818 1.101l-1.613-2.176c0.887-0.717 1.792-1.229 2.714-1.536 0.939-0.324 1.946-0.486 3.021-0.486 1.741 0 3.098 0.435 4.070 1.306s1.459 2.074 1.459 3.61v7.962h-2.918l-0.219-1.62zM128.099 20.404v-0.102h-3.174c-0.273 0-0.546 0.026-0.819 0.077-0.256 0.034-0.478 0.128-0.666 0.282-0.171 0.119-0.299 0.273-0.384 0.461-0.085 0.171-0.128 0.367-0.128 0.589 0 0.478 0.188 0.862 0.563 1.152s0.879 0.435 1.51 0.435c0.563 0 1.075-0.119 1.536-0.358 0.478-0.256 0.853-0.597 1.126-1.024 0.29-0.444 0.435-0.947 0.435-1.51zM137.158 25.473c-0.58-0.256-1.050-0.674-1.408-1.254-0.341-0.58-0.512-1.357-0.512-2.33v-6.426h-2.304v-2.483h2.304v-2.944l3.226-1.715v4.659h2.739v2.483h-2.739v5.555c0 0.734 0.094 1.289 0.282 1.664 0.205 0.375 0.597 0.563 1.178 0.563 0.171 0 0.358-0.017 0.563-0.051 0.222-0.034 0.461-0.085 0.717-0.154v2.432c-0.358 0.137-0.717 0.23-1.075 0.282-0.358 0.068-0.717 0.102-1.075 0.102-0.683 0-1.314-0.128-1.894-0.384zM146.207 25.319c-0.785-0.358-1.434-0.836-1.946-1.433-0.495-0.614-0.862-1.306-1.101-2.074-0.239-0.785-0.358-1.604-0.358-2.458 0-0.819 0.119-1.621 0.358-2.406s0.597-1.493 1.075-2.125c0.478-0.631 1.092-1.135 1.843-1.51 0.768-0.393 1.681-0.589 2.739-0.589 0.99 0 1.852 0.171 2.586 0.512 0.734 0.324 1.34 0.785 1.818 1.382 0.478 0.58 0.836 1.263 1.075 2.048 0.256 0.785 0.384 1.621 0.384 2.509 0 0.119-0.009 0.29-0.026 0.512 0 0.205-0.017 0.427-0.051 0.666h-8.627c0.085 0.905 0.418 1.587 0.998 2.048 0.597 0.461 1.34 0.691 2.227 0.691 0.649 0 1.28-0.111 1.894-0.333 0.614-0.239 1.161-0.572 1.638-0.998l1.587 2.151c-0.597 0.461-1.161 0.836-1.69 1.126s-1.084 0.495-1.664 0.614c-0.563 0.137-1.212 0.205-1.946 0.205-1.092 0-2.031-0.179-2.816-0.538zM151.659 17.998c0.001-0.009 0.001-0.017 0.001-0.026 0-0.358-0.068-0.691-0.205-0.998-0.137-0.324-0.324-0.606-0.563-0.845s-0.529-0.418-0.87-0.538c-0.324-0.137-0.7-0.205-1.126-0.205-0.631 0-1.161 0.128-1.587 0.384s-0.751 0.589-0.973 0.998c-0.205 0.393-0.333 0.802-0.384 1.229h5.708z"></path>
</symbol>
<symbol id="icon-arrow" viewBox="0 0 122 32">
<path d="M119.826 15.202c0.3 0.3 0.469 0.707 0.469 1.131s-0.169 0.831-0.469 1.131l-13.576 13.576c-0.3 0.3-0.707 0.469-1.132 0.469s-0.831-0.169-1.131-0.469c-0.3-0.3-0.469-0.707-0.469-1.131s0.169-0.831 0.469-1.131l10.845-10.845-111.37 0.002c-0.21 0-0.419-0.041-0.613-0.122s-0.371-0.198-0.52-0.347c-0.149-0.149-0.267-0.325-0.347-0.52s-0.122-0.403-0.122-0.613c0-0.21 0.041-0.419 0.122-0.613s0.199-0.371 0.347-0.52c0.149-0.149 0.325-0.267 0.52-0.347s0.403-0.122 0.613-0.122l111.37 0.002-10.845-10.845c-0.3-0.3-0.469-0.707-0.469-1.131s0.169-0.831 0.469-1.131c0.3-0.3 0.707-0.469 1.131-0.469s0.831 0.169 1.132 0.469l13.576 13.576z"></path>
</symbol>
</svg>
