<svg aria-hidden="true" style="position: absolute; width: 0; height: 0; overflow: hidden;" version="1.1" xmlns="http://www.w3.org/2000/svg" xmlns:xlink="http://www.w3.org/1999/xlink">
<defs>
<symbol id="icon-logo" viewBox="0 0 155 32">
<path d="M16.451 0v25.6h-16.451v-25.6h16.451zM19.148 12.98h3.174v12.621h-3.174v-12.621zM19.046 7.758h3.405v3.277h-3.405v-3.277zM25.449 12.98h3.2v1.698c0.137-0.232 0.291-0.44 0.461-0.623 0.427-0.461 0.922-0.794 1.485-0.998 0.563-0.222 1.143-0.333 1.741-0.333 1.434 0 2.551 0.41 3.354 1.229 0.819 0.802 1.229 1.937 1.229 3.405v8.243h-3.2v-7.066c0-1.058-0.188-1.826-0.563-2.304-0.375-0.495-0.964-0.742-1.766-0.742-0.614 0-1.126 0.145-1.536 0.435-0.393 0.273-0.691 0.708-0.896 1.306s-0.307 1.374-0.307 2.33v6.042h-3.2v-12.621zM41.819 25.012c0.802 0.563 1.758 0.845 2.867 0.845 0.631 0 1.237-0.119 1.818-0.358 0.597-0.256 1.118-0.674 1.562-1.254 0.090-0.117 0.176-0.241 0.256-0.374v1.73h3.149v-17.843h-3.149v6.956c-0.064-0.105-0.132-0.205-0.205-0.3-0.427-0.563-0.939-0.981-1.536-1.254-0.58-0.29-1.212-0.435-1.894-0.435-0.973 0-1.869 0.265-2.688 0.794-0.819 0.512-1.476 1.254-1.971 2.227-0.478 0.973-0.717 2.15-0.717 3.533 0 1.246 0.213 2.372 0.64 3.379 0.444 0.99 1.067 1.775 1.869 2.355zM47.169 22.478c-0.444 0.307-0.981 0.461-1.613 0.461-0.614 0-1.152-0.145-1.613-0.435-0.461-0.307-0.819-0.734-1.075-1.28-0.239-0.546-0.358-1.195-0.358-1.946s0.119-1.391 0.358-1.92c0.256-0.546 0.614-0.964 1.075-1.254 0.461-0.307 0.998-0.461 1.613-0.461 0.631 0 1.169 0.154 1.613 0.461 0.461 0.29 0.811 0.708 1.050 1.254 0.256 0.546 0.384 1.186 0.384 1.92s-0.128 1.374-0.384 1.92c-0.239 0.546-0.589 0.973-1.050 1.28zM54.573 12.98h3.174v12.621h-3.174v-12.621zM54.471 7.758h3.405v3.277h-3.405v-3.277zM61.744 30.081c1.092 0.666 2.577 0.998 4.454 0.998 1.843 0 3.26-0.333 4.25-0.998 1.007-0.649 1.51-1.596 1.51-2.842 0-0.683-0.154-1.237-0.461-1.664-0.29-0.427-0.717-0.759-1.28-0.998-0.546-0.256-1.195-0.452-1.946-0.589-0.734-0.137-1.536-0.265-2.406-0.384-0.563-0.068-1.050-0.145-1.459-0.23s-0.725-0.205-0.947-0.358c-0.222-0.171-0.333-0.393-0.333-0.666 0-0.288 0.087-0.542 0.262-0.762 0.747 0.32 1.598 0.48 2.554 0.48 1.007 0 1.894-0.188 2.662-0.563s1.365-0.896 1.792-1.562c0.444-0.683 0.666-1.485 0.666-2.406 0-0.816-0.174-1.543-0.523-2.179l1.905-1.559-1.613-1.971-2.090 1.668c-0.111-0.065-0.225-0.126-0.342-0.183-0.785-0.393-1.638-0.589-2.56-0.589-0.939 0-1.809 0.196-2.611 0.589-0.785 0.393-1.417 0.947-1.894 1.664-0.461 0.7-0.691 1.519-0.691 2.458 0 0.905 0.222 1.707 0.666 2.406 0.157 0.242 0.336 0.467 0.537 0.675-0.258 0.208-0.488 0.435-0.69 0.682-0.461 0.546-0.691 1.152-0.691 1.818 0 0.751 0.247 1.357 0.742 1.818 0.243 0.218 0.516 0.408 0.82 0.572l-1.793 1.117c-0.034 0.137-0.060 0.273-0.077 0.41-0.017 0.154-0.026 0.282-0.026 0.384 0 1.178 0.538 2.099 1.613 2.765zM62.947 27.188l0.927-1.133c0.495 0.12 0.996 0.207 1.505 0.263 0.614 0.085 1.135 0.162 1.562 0.23 0.444 0.068 0.802 0.145 1.075 0.23s0.469 0.196 0.589 0.333c0.119 0.137 0.179 0.316 0.179 0.538 0 0.41-0.222 0.717-0.666 0.922-0.444 0.222-1.084 0.333-1.92 0.333-0.99 0-1.783-0.128-2.381-0.384s-0.896-0.623-0.896-1.101v-0.102c0-0.034 0.009-0.077 0.026-0.128zM67.376 18.945c-0.324 0.41-0.828 0.614-1.51 0.614s-1.195-0.205-1.536-0.614c-0.341-0.427-0.512-0.939-0.512-1.536s0.179-1.092 0.538-1.485c0.375-0.393 0.879-0.589 1.51-0.589s1.126 0.196 1.485 0.589c0.358 0.375 0.538 0.87 0.538 1.485 0 0.597-0.171 1.109-0.512 1.536zM74.249 12.98h3.2v1.682c0.273-0.464 0.589-0.829 0.947-1.094 0.41-0.307 0.828-0.521 1.254-0.64 0.444-0.137 0.879-0.205 1.306-0.205 0.666 0 1.297 0.128 1.894 0.384 0.597 0.239 1.118 0.657 1.562 1.254 0.059 0.079 0.115 0.162 0.169 0.249 0.485-0.669 1.034-1.145 1.648-1.427 0.649-0.307 1.331-0.461 2.048-0.461 1.075 0 1.946 0.239 2.611 0.717s1.152 1.092 1.459 1.843c0.324 0.734 0.486 1.519 0.486 2.355v7.962h-3.174v-7.194c0-0.631-0.085-1.161-0.256-1.587-0.154-0.444-0.384-0.777-0.691-0.998s-0.708-0.333-1.203-0.333c-0.512 0-0.947 0.137-1.306 0.41s-0.631 0.683-0.819 1.229c-0.171 0.546-0.256 1.246-0.256 2.099v6.374h-3.174v-7.245c0-0.956-0.179-1.673-0.538-2.15-0.341-0.478-0.845-0.717-1.51-0.717-0.529 0-0.981 0.137-1.357 0.41-0.358 0.273-0.631 0.683-0.819 1.229s-0.282 1.246-0.282 2.099v6.374h-3.2v-12.621zM103.695 23.981c-0.069 0.101-0.141 0.197-0.216 0.289-0.444 0.546-0.956 0.947-1.536 1.203s-1.195 0.384-1.843 0.384c-0.922 0-1.749-0.171-2.483-0.512-0.717-0.341-1.289-0.828-1.715-1.459-0.41-0.631-0.614-1.357-0.614-2.176 0-0.734 0.145-1.357 0.435-1.869 0.307-0.529 0.708-0.93 1.203-1.203 0.427-0.256 0.896-0.435 1.408-0.538 0.529-0.102 1.092-0.154 1.69-0.154h3.635v-0.307c0-0.751-0.239-1.306-0.717-1.664-0.461-0.375-1.092-0.563-1.894-0.563-0.666 0-1.348 0.137-2.048 0.41-0.683 0.256-1.289 0.623-1.818 1.101l-1.613-2.176c0.887-0.717 1.792-1.229 2.714-1.536 0.939-0.324 1.946-0.486 3.021-0.486 1.741 0 3.098 0.435 4.070 1.306s1.459 2.074 1.459 3.61v7.962h-2.919l-0.219-1.62zM103.657 20.404v-0.102h-3.174c-0.273 0-0.546 0.026-0.819 0.077-0.256 0.034-0.478 0.128-0.666 0.282-0.171 0.119-0.299 0.273-0.384 0.461-0.085 0.171-0.128 0.367-0.128 0.589 0 0.478 0.188 0.862 0.563 1.152s0.879 0.435 1.51 0.435c0.563 0 1.075-0.119 1.536-0.358 0.478-0.256 0.853-0.597 1.126-1.024 0.29-0.444 0.435-0.947 0.435-1.51zM112.717 25.473c-0.58-0.256-1.050-0.674-1.408-1.254-0.341-0.58-0.512-1.357-0.512-2.33v-6.426h-2.304v-2.483h2.304v-2.944l3.226-1.715v4.659h2.739v2.483h-2.739v5.555c0 0.734 0.094 1.289 0.282 1.664 0.205 0.375 0.597 0.563 1.178 0.563 0.171 0 0.358-0.017 0.563-0.051 0.222-0.034 0.461-0.085 0.717-0.154v2.432c-0.358 0.137-0.717 0.23-1.075 0.282-0.358 0.068-0.717 0.102-1.075 0.102-0.683 0-1.314-0.128-1.894-0.384zM127.070 23.981c-0.069 0.101-0.142 0.197-0.217 0.289-0.444 0.546-0.956 0.947-1.536 1.203s-1.195 0.384-1.843 0.384c-0.922 0-1.749-0.171-2.483-0.512-0.717-0.341-1.289-0.828-1.715-1.459-0.41-0.631-0.614-1.357-0.614-2.176 0-0.734 0.145-1.357 0.435-1.869 0.307-0.529 0.708-0.93 1.203-1.203 0.427-0.256 0.896-0.435 1.408-0.538 0.529-0.102 1.092-0.154 1.69-0.154h3.635v-0.307c0-0.751-0.239-1.306-0.717-1.664-0.461-0.375-1.092-0.563-1.894-0.563-0.666 0-1.348 0.137-2.048 0.41-0.683 0.256-1.289 0.623-1.818 1.101l-1.613-2.176c0.887-0.717 1.792-1.229 2.714-1.536 0.939-0.324 1.946-0.486 3.021-0.486 1.741 0 3.098 0.435 4.070 1.306s1.459 2.074 1.459 3.61v7.962h-2.918l-0.219-1.62zM127.033 20.404v-0.102h-3.174c-0.273 0-0.546 0.026-0.819 0.077-0.256 0.034-0.478 0.128-0.666 0.282-0.171 0.119-0.299 0.273-0.384 0.461-0.085 0.171-0.128 0.367-0.128 0.589 0 0.478 0.188 0.862 0.563 1.152s0.879 0.435 1.51 0.435c0.563 0 1.075-0.119 1.536-0.358 0.478-0.256 0.853-0.597 1.126-1.024 0.29-0.444 0.435-0.947 0.435-1.51zM136.092 25.473c-0.58-0.256-1.050-0.674-1.408-1.254-0.341-0.58-0.512-1.357-0.512-2.33v-6.426h-2.304v-2.483h2.304v-2.944l3.226-1.715v4.659h2.739v2.483h-2.739v5.555c0 0.734 0.094 1.289 0.282 1.664 0.205 0.375 0.597 0.563 1.178 0.563 0.171 0 0.358-0.017 0.563-0.051 0.222-0.034 0.461-0.085 0.717-0.154v2.432c-0.358 0.137-0.717 0.23-1.075 0.282-0.358 0.068-0.717 0.102-1.075 0.102-0.683 0-1.314-0.128-1.894-0.384zM145.14 25.319c-0.785-0.358-1.434-0.836-1.946-1.434-0.495-0.614-0.862-1.306-1.101-2.074-0.239-0.785-0.358-1.604-0.358-2.458 0-0.819 0.119-1.621 0.358-2.406s0.597-1.493 1.075-2.125c0.478-0.631 1.092-1.135 1.843-1.51 0.768-0.393 1.681-0.589 2.739-0.589 0.99 0 1.852 0.171 2.586 0.512 0.734 0.324 1.34 0.785 1.818 1.382 0.478 0.58 0.836 1.263 1.075 2.048 0.256 0.785 0.384 1.621 0.384 2.509 0 0.119-0.009 0.29-0.026 0.512 0 0.205-0.017 0.427-0.051 0.666h-8.627c0.085 0.905 0.418 1.587 0.998 2.048 0.597 0.461 1.34 0.691 2.227 0.691 0.649 0 1.28-0.111 1.894-0.333 0.614-0.239 1.161-0.572 1.638-0.998l1.587 2.15c-0.597 0.461-1.161 0.836-1.69 1.126s-1.084 0.495-1.664 0.614c-0.563 0.137-1.212 0.205-1.946 0.205-1.092 0-2.031-0.179-2.816-0.538zM150.592 17.998c0.001-0.009 0.001-0.017 0.001-0.026 0-0.358-0.068-0.691-0.205-0.998-0.137-0.324-0.324-0.606-0.563-0.845s-0.529-0.418-0.87-0.538c-0.324-0.137-0.7-0.205-1.126-0.205-0.631 0-1.161 0.128-1.587 0.384s-0.751 0.589-0.973 0.998c-0.205 0.393-0.333 0.802-0.384 1.229h5.708z"></path>
</symbol>
</defs>
</svg>
