<svg width="145" height="30" viewBox="0 0 145 30" fill="none" xmlns="http://www.w3.org/2000/svg">
<path fill-rule="evenodd" clip-rule="evenodd" d="M15.4231 0H0V24H15.4231V0ZM17.9515 12.169V24.001H20.9275V12.169H17.9515ZM17.8555 7.27303V10.345H21.0475V7.27303H17.8555ZM23.8583 12.169V24.001H26.8583V18.337C26.8583 17.441 26.9543 16.713 27.1463 16.153C27.3383 15.593 27.6183 15.185 27.9863 14.929C28.3703 14.657 28.8503 14.521 29.4263 14.521C30.1783 14.521 30.7303 14.753 31.0823 15.217C31.4343 15.665 31.6103 16.385 31.6103 17.377V24.001H34.6103V16.273C34.6103 14.897 34.2263 13.833 33.4583 13.081C32.7063 12.313 31.6583 11.929 30.3143 11.929C29.7543 11.929 29.2103 12.033 28.6823 12.241C28.1543 12.433 27.6903 12.745 27.2903 13.177C27.1311 13.349 26.9871 13.5437 26.8583 13.7613V12.169H23.8583ZM39.2051 23.449C39.9571 23.977 40.8531 24.241 41.8931 24.241C42.4851 24.241 43.0531 24.129 43.5971 23.905C44.1571 23.665 44.6451 23.273 45.0611 22.729C45.1457 22.6194 45.2257 22.5026 45.3011 22.3788V24.001H48.2531V7.27303H45.3011V13.7945C45.2411 13.6965 45.1771 13.6027 45.1091 13.513C44.7091 12.985 44.2291 12.593 43.6691 12.337C43.1251 12.065 42.5331 11.929 41.8931 11.929C40.9811 11.929 40.1411 12.177 39.3731 12.673C38.6051 13.153 37.9891 13.849 37.5251 14.761C37.0771 15.673 36.8531 16.777 36.8531 18.073C36.8531 19.241 37.0531 20.297 37.4531 21.241C37.8691 22.169 38.4531 22.905 39.2051 23.449ZM44.2211 21.073C43.8051 21.361 43.3011 21.505 42.7091 21.505C42.1331 21.505 41.6291 21.369 41.1971 21.097C40.7651 20.809 40.4291 20.409 40.1891 19.897C39.9651 19.385 39.8531 18.777 39.8531 18.073C39.8531 17.369 39.9651 16.769 40.1891 16.273C40.4291 15.761 40.7651 15.369 41.1971 15.097C41.6291 14.809 42.1331 14.665 42.7091 14.665C43.3011 14.665 43.8051 14.809 44.2211 15.097C44.6531 15.369 44.9811 15.761 45.2051 16.273C45.4451 16.785 45.5651 17.385 45.5651 18.073C45.5651 18.761 45.4451 19.361 45.2051 19.873C44.9811 20.385 44.6531 20.785 44.2211 21.073ZM51.1624 12.169V24.001H54.1384V12.169H51.1624ZM51.0664 7.27303V10.345H54.2584V7.27303H51.0664ZM57.8852 28.201C58.9092 28.825 60.3012 29.137 62.0612 29.137C63.7892 29.137 65.1172 28.825 66.0452 28.201C66.9892 27.593 67.4612 26.705 67.4612 25.537C67.4612 24.897 67.3172 24.377 67.0292 23.977C66.7572 23.577 66.3572 23.265 65.8292 23.041C65.3172 22.801 64.7092 22.617 64.0052 22.489C63.3172 22.361 62.5652 22.241 61.7492 22.129C61.2212 22.065 60.7652 21.993 60.3812 21.913C59.9972 21.833 59.7012 21.721 59.4932 21.577C59.2852 21.417 59.1812 21.209 59.1812 20.953C59.1812 20.6834 59.263 20.4453 59.4266 20.2386C60.1269 20.5389 60.9251 20.689 61.8212 20.689C62.7652 20.689 63.5972 20.513 64.3172 20.161C65.0372 19.809 65.5972 19.321 65.9972 18.697C66.4132 18.057 66.6212 17.305 66.6212 16.441C66.6212 15.6757 66.4578 14.9948 66.131 14.3985L67.9172 12.937L66.4052 11.089L64.4459 12.653C64.3423 12.5923 64.2354 12.5349 64.1252 12.481C63.3892 12.113 62.5892 11.929 61.7252 11.929C60.8452 11.929 60.0292 12.113 59.2772 12.481C58.5412 12.849 57.9492 13.369 57.5012 14.041C57.0692 14.697 56.8532 15.465 56.8532 16.345C56.8532 17.193 57.0612 17.945 57.4772 18.601C57.6247 18.828 57.7924 19.0389 57.9802 19.2336C57.7384 19.4283 57.5227 19.6414 57.3332 19.873C56.9012 20.385 56.6852 20.953 56.6852 21.577C56.6852 22.281 56.9172 22.849 57.3812 23.281C57.6086 23.4849 57.8648 23.6638 58.1498 23.8177L56.4692 24.865C56.4372 24.993 56.4132 25.121 56.3972 25.249C56.3812 25.393 56.3732 25.513 56.3732 25.609C56.3732 26.713 56.8772 27.577 57.8852 28.201ZM59.0132 25.489L59.8823 24.4268C60.3459 24.5391 60.8162 24.6212 61.2932 24.673C61.8692 24.753 62.3572 24.825 62.7572 24.889C63.1732 24.953 63.5092 25.025 63.7652 25.105C64.0212 25.185 64.2052 25.289 64.3172 25.417C64.4292 25.545 64.4852 25.713 64.4852 25.921C64.4852 26.305 64.2772 26.593 63.8612 26.785C63.4452 26.993 62.8452 27.097 62.0612 27.097C61.1332 27.097 60.3892 26.977 59.8292 26.737C59.2692 26.497 58.9892 26.153 58.9892 25.705V25.609C58.9892 25.577 58.9972 25.537 59.0132 25.489ZM63.1652 17.761C62.8612 18.145 62.3892 18.337 61.7492 18.337C61.1092 18.337 60.6292 18.145 60.3092 17.761C59.9892 17.361 59.8292 16.881 59.8292 16.321C59.8292 15.761 59.9972 15.297 60.3332 14.929C60.6852 14.561 61.1572 14.377 61.7492 14.377C62.3412 14.377 62.8052 14.561 63.1412 14.929C63.4772 15.281 63.6452 15.745 63.6452 16.321C63.6452 16.881 63.4852 17.361 63.1652 17.761ZM69.6083 12.169V24.001H72.6083V18.025C72.6083 17.225 72.6963 16.569 72.8723 16.057C73.0483 15.545 73.3043 15.161 73.6403 14.905C73.9923 14.649 74.4163 14.521 74.9123 14.521C75.5363 14.521 76.0083 14.745 76.3283 15.193C76.6643 15.641 76.8323 16.313 76.8323 17.209V24.001H79.8083V18.025C79.8083 17.225 79.8883 16.569 80.0483 16.057C80.2243 15.545 80.4803 15.161 80.8163 14.905C81.1523 14.649 81.5603 14.521 82.0403 14.521C82.5043 14.521 82.8803 14.625 83.1683 14.833C83.4563 15.041 83.6723 15.353 83.8163 15.769C83.9763 16.169 84.0563 16.665 84.0563 17.257V24.001H87.0323V16.537C87.0323 15.753 86.8803 15.017 86.5763 14.329C86.2883 13.625 85.8323 13.049 85.2083 12.601C84.5843 12.153 83.7683 11.929 82.7603 11.929C82.0883 11.929 81.4483 12.073 80.8403 12.361C80.2647 12.6255 79.7496 13.0714 79.2951 13.6988C79.2444 13.6173 79.1915 13.5393 79.1363 13.465C78.7203 12.905 78.2323 12.513 77.6723 12.289C77.1123 12.049 76.5203 11.929 75.8963 11.929C75.4963 11.929 75.0883 11.993 74.6723 12.121C74.2723 12.233 73.8803 12.433 73.4963 12.721C73.1603 12.9694 72.8643 13.3111 72.6083 13.7463V12.169H69.6083ZM97.2136 22.4821L97.4188 24.001H100.155V16.537C100.155 15.097 99.6988 13.969 98.7868 13.153C97.8748 12.337 96.6028 11.929 94.9708 11.929C93.9628 11.929 93.0188 12.081 92.1388 12.385C91.2748 12.673 90.4268 13.153 89.5948 13.825L91.1068 15.865C91.6028 15.417 92.1708 15.073 92.8108 14.833C93.4668 14.577 94.1068 14.449 94.7308 14.449C95.4828 14.449 96.0748 14.625 96.5068 14.977C96.9548 15.313 97.1788 15.833 97.1788 16.537V16.825H93.7708C93.2108 16.825 92.6828 16.873 92.1868 16.969C91.7068 17.065 91.2668 17.233 90.8668 17.473C90.4028 17.729 90.0268 18.105 89.7388 18.601C89.4668 19.081 89.3308 19.665 89.3308 20.353C89.3308 21.121 89.5228 21.801 89.9068 22.393C90.3068 22.985 90.8428 23.441 91.5148 23.761C92.2028 24.081 92.9788 24.241 93.8428 24.241C94.4508 24.241 95.0268 24.121 95.5708 23.881C96.1148 23.641 96.5948 23.265 97.0108 22.753C97.0814 22.6668 97.149 22.5765 97.2136 22.4821ZM97.1788 19.129V19.033H94.2028C93.9468 19.033 93.6908 19.057 93.4348 19.105C93.1948 19.137 92.9868 19.225 92.8108 19.369C92.6508 19.481 92.5308 19.625 92.4508 19.801C92.3708 19.961 92.3308 20.145 92.3308 20.353C92.3308 20.801 92.5068 21.161 92.8588 21.433C93.2108 21.705 93.6828 21.841 94.2748 21.841C94.8028 21.841 95.2828 21.729 95.7148 21.505C96.1628 21.265 96.5148 20.945 96.7708 20.545C97.0428 20.129 97.1788 19.657 97.1788 19.129ZM105.672 23.881C106.216 24.121 106.808 24.241 107.448 24.241C107.784 24.241 108.12 24.209 108.456 24.145C108.792 24.097 109.128 24.009 109.464 23.881V21.601C109.224 21.665 109 21.713 108.792 21.745C108.6 21.777 108.424 21.793 108.264 21.793C107.72 21.793 107.352 21.617 107.16 21.265C106.984 20.913 106.896 20.393 106.896 19.705V14.497H109.464V12.169H106.896V7.80103L103.872 9.40903V12.169H101.712V14.497H103.872V20.521C103.872 21.433 104.032 22.161 104.352 22.705C104.688 23.249 105.128 23.641 105.672 23.881ZM119.128 22.4821L119.333 24.001H122.069V16.537C122.069 15.097 121.613 13.969 120.701 13.153C119.789 12.337 118.517 11.929 116.885 11.929C115.877 11.929 114.933 12.081 114.053 12.385C113.189 12.673 112.341 13.153 111.509 13.825L113.021 15.865C113.517 15.417 114.085 15.073 114.725 14.833C115.381 14.577 116.021 14.449 116.645 14.449C117.397 14.449 117.989 14.625 118.421 14.977C118.869 15.313 119.093 15.833 119.093 16.537V16.825H115.685C115.125 16.825 114.597 16.873 114.101 16.969C113.621 17.065 113.181 17.233 112.781 17.473C112.317 17.729 111.941 18.105 111.653 18.601C111.381 19.081 111.245 19.665 111.245 20.353C111.245 21.121 111.437 21.801 111.821 22.393C112.221 22.985 112.757 23.441 113.429 23.761C114.117 24.081 114.893 24.241 115.757 24.241C116.365 24.241 116.941 24.121 117.485 23.881C118.029 23.641 118.509 23.265 118.925 22.753C118.995 22.6668 119.063 22.5765 119.128 22.4821ZM119.093 19.129V19.033H116.117C115.861 19.033 115.605 19.057 115.349 19.105C115.109 19.137 114.901 19.225 114.725 19.369C114.565 19.481 114.445 19.625 114.365 19.801C114.285 19.961 114.245 20.145 114.245 20.353C114.245 20.801 114.421 21.161 114.773 21.433C115.125 21.705 115.597 21.841 116.189 21.841C116.717 21.841 117.197 21.729 117.629 21.505C118.077 21.265 118.429 20.945 118.685 20.545C118.957 20.129 119.093 19.657 119.093 19.129ZM127.586 23.881C128.13 24.121 128.722 24.241 129.362 24.241C129.698 24.241 130.034 24.209 130.37 24.145C130.706 24.097 131.042 24.009 131.378 23.881V21.601C131.138 21.665 130.914 21.713 130.706 21.745C130.514 21.777 130.338 21.793 130.178 21.793C129.634 21.793 129.266 21.617 129.074 21.265C128.898 20.913 128.81 20.393 128.81 19.705V14.497H131.378V12.169H128.81V7.80103L125.786 9.40903V12.169H123.626V14.497H125.786V20.521C125.786 21.433 125.946 22.161 126.266 22.705C126.602 23.249 127.042 23.641 127.586 23.881ZM136.069 23.737C136.805 24.073 137.685 24.241 138.709 24.241C139.397 24.241 140.005 24.177 140.533 24.049C141.077 23.937 141.597 23.745 142.093 23.473C142.589 23.201 143.117 22.849 143.677 22.417L142.189 20.401C141.741 20.801 141.229 21.113 140.653 21.337C140.077 21.545 139.485 21.649 138.877 21.649C138.045 21.649 137.349 21.433 136.789 21.001C136.245 20.569 135.933 19.929 135.853 19.081H143.941C143.973 18.857 143.989 18.649 143.989 18.457C144.005 18.249 144.013 18.089 144.013 17.977C144.013 17.145 143.893 16.361 143.653 15.625C143.429 14.889 143.093 14.249 142.645 13.705C142.197 13.145 141.629 12.713 140.941 12.409C140.253 12.089 139.445 11.929 138.517 11.929C137.525 11.929 136.669 12.113 135.949 12.481C135.245 12.833 134.669 13.305 134.221 13.897C133.773 14.489 133.437 15.153 133.213 15.889C132.989 16.625 132.877 17.377 132.877 18.145C132.877 18.945 132.989 19.713 133.213 20.449C133.437 21.169 133.781 21.817 134.245 22.393C134.725 22.953 135.333 23.401 136.069 23.737ZM141.18 16.873C141.181 16.865 141.181 16.857 141.181 16.849C141.181 16.513 141.117 16.201 140.989 15.913C140.861 15.609 140.685 15.345 140.461 15.121C140.237 14.897 139.965 14.729 139.645 14.617C139.341 14.489 138.989 14.425 138.589 14.425C137.997 14.425 137.501 14.545 137.101 14.785C136.701 15.025 136.397 15.337 136.189 15.721C135.997 16.089 135.877 16.473 135.829 16.873H141.18Z" fill="black"/>
</svg>
